<?xml version="1.0" encoding="iso-8859-1"?>
<!-- Uploaded to: SVG Repo, www.svgrepo.com, Generator: SVG Repo Mixer Tools -->
<svg version="1.1" id="Layer_1" xmlns="http://www.w3.org/2000/svg" xmlns:xlink="http://www.w3.org/1999/xlink"
     viewBox="0 0 512 512" xml:space="preserve">
<rect x="197.022" y="8.17" style="fill:#51C0C2;" width="117.956" height="32.681"/>
    <path style="fill:#C8FEFF;" d="M304.085,73.532l36.145,71.626c-21.057,0-21.057,15.741-42.115,15.741s-21.057-15.741-42.115-15.741
	c-21.057,0-21.057,15.741-42.115,15.741s-21.057-15.741-42.115-15.741l36.145-71.626V40.851h96.169L304.085,73.532L304.085,73.532z"
    />
    <path style="fill:#F9EBDB;" d="M364.218,214.463v267.58c0,11.983-9.804,21.787-21.787,21.787h-172.86
	c-11.983,0-21.787-9.804-21.787-21.787v-267.58c0-11.983,4.412-30.535,9.815-41.232l14.173-28.073
	c21.057,0,21.057,15.741,42.115,15.741s21.057-15.741,42.115-15.741c21.057,0,21.057,15.741,42.115,15.741
	c21.057,0,21.057-15.741,42.115-15.741l14.173,28.073C359.806,183.928,364.218,202.48,364.218,214.463z"/>
    <path style="fill:#700D00;" d="M361.697,169.549l-49.442-97.962V49.021h2.723c4.512,0,8.17-3.657,8.17-8.17V8.17
	c0-4.513-3.658-8.17-8.17-8.17H197.022c-4.512,0-8.17,3.657-8.17,8.17v32.681c0,4.513,3.658,8.17,8.17,8.17h2.723v22.566
	l-49.442,97.962c-5.996,11.879-10.693,31.61-10.693,44.918v267.576c0,16.518,13.438,29.957,29.957,29.957h172.863
	c16.519,0,29.957-13.439,29.957-29.957V214.467C372.389,201.158,367.693,181.429,361.697,169.549z M205.193,16.34h101.615v16.34
	H205.193V16.34z M215.21,77.213c0.576-1.142,0.876-2.402,0.876-3.681V49.021h79.827v24.511c0,1.279,0.3,2.539,0.876,3.681
	l31.094,61.607c-5.895,1.911-10.026,4.993-13.603,7.666c-4.85,3.626-8.354,6.245-16.167,6.245s-11.317-2.619-16.167-6.245
	c-5.66-4.231-12.705-9.498-25.952-9.498c-13.246,0-20.289,5.267-25.95,9.499c-4.849,3.625-8.352,6.244-16.164,6.244
	s-11.315-2.619-16.164-6.244c-3.575-2.673-7.707-5.755-13.601-7.666L215.21,77.213z M356.049,482.043
	c0,7.509-6.108,13.617-13.617,13.617H169.569c-7.509,0-13.617-6.108-13.617-13.617V214.467c0-10.756,4.094-27.954,8.94-37.557
	l11.695-23.172c4.69,0.868,7.624,3.052,11.346,5.834c5.659,4.232,12.704,9.499,25.949,9.499c13.244,0,20.289-5.267,25.949-9.499
	c4.849-3.625,8.352-6.244,16.164-6.244c7.813,0,11.317,2.619,16.167,6.245c5.66,4.232,12.705,9.498,25.951,9.498
	c13.247,0,20.29-5.267,25.952-9.498c3.721-2.782,6.657-4.966,11.348-5.835l11.695,23.173c4.845,9.601,8.94,26.799,8.94,37.556
	L356.049,482.043L356.049,482.043z"/>
    <g>
	<path style="fill:#FFFFFF;" d="M180.463,479.319c-4.512,0-8.17-3.657-8.17-8.17v-32.681c0-4.513,3.658-8.17,8.17-8.17
		s8.17,3.657,8.17,8.17v32.681C188.633,475.662,184.975,479.319,180.463,479.319z"/>
        <path style="fill:#FFFFFF;" d="M180.463,413.957c-4.512,0-8.17-3.657-8.17-8.17v-191.32c0-8.051,3.56-23.006,7.188-30.194
		c2.033-4.027,6.947-5.645,10.975-3.611s5.646,6.947,3.612,10.975c-2.489,4.93-5.435,17.306-5.435,22.83v191.32
		C188.633,410.3,184.975,413.957,180.463,413.957z"/>
        <path style="fill:#FFFFFF;" d="M271.404,81.702h-30.807c-4.512,0-8.17-3.657-8.17-8.17s3.658-8.17,8.17-8.17h30.806
		c4.512,0,8.17,3.657,8.17,8.17S275.916,81.702,271.404,81.702z"/>
</g>
</svg>